<?xml version="1.0" standalone="no"?>
<!DOCTYPE svg PUBLIC "-//W3C//DTD SVG 20010904//EN"
 "http://www.w3.org/TR/2001/REC-SVG-20010904/DTD/svg10.dtd">
<svg version="1.0" xmlns="http://www.w3.org/2000/svg"
 width="300.000000pt" height="300.000000pt" viewBox="0 0 300.000000 300.000000"
 preserveAspectRatio="xMidYMid meet">
<metadata>
Created by potrace 1.11, written by Peter Selinger 2001-2013
</metadata>
<g transform="translate(0.000000,300.000000) scale(0.100000,-0.100000)"
fill="#000000" stroke="none">
<path d="M270 2125 l0 -195 38 0 c20 -1 137 -1 260 -1 l222 0 1 -47 c0 -26 1
-192 1 -368 0 -276 -3 -326 -16 -353 -56 -106 -221 -78 -375 65 l-71 65 -105
-161 c-121 -185 -119 -159 -20 -253 138 -131 283 -190 475 -190 234 0 412 98
498 274 58 120 60 140 58 777 l-1 577 -482 3 -483 2 0 -195z"/>
<path d="M1445 1511 l0 -811 221 0 222 0 0 209 c-1 115 2 213 5 217 3 5 63 9
133 9 l128 -1 26 -44 c36 -61 99 -175 162 -292 l53 -98 253 0 c138 0 252 3
252 6 0 3 -72 117 -160 253 -88 136 -162 255 -165 263 -4 11 5 23 29 37 50 31
123 116 156 181 44 86 61 161 65 284 9 290 -146 495 -430 568 -73 19 -116 21
-515 25 l-435 5 0 -811z m821 409 c58 -17 109 -64 123 -115 37 -132 -22 -248
-138 -274 -24 -5 -116 -9 -204 -8 l-160 2 1 183 c0 100 1 192 1 205 l1 23 165
-2 c99 -1 183 -6 211 -14z"/>
</g>
</svg>
