<?xml version="1.0" standalone="no"?>
<!DOCTYPE svg PUBLIC "-//W3C//DTD SVG 20010904//EN"
 "http://www.w3.org/TR/2001/REC-SVG-20010904/DTD/svg10.dtd">
<svg version="1.0" xmlns="http://www.w3.org/2000/svg"
 width="300.000000pt" height="300.000000pt" viewBox="0 0 300.000000 300.000000"
 preserveAspectRatio="xMidYMid meet">
<metadata>
Created by potrace 1.11, written by Peter Selinger 2001-2013
</metadata>
<g transform="translate(0.000000,300.000000) scale(0.100000,-0.100000)"
fill="#000000" stroke="none">
<path d="M200 2175 l0 -185 38 -1 c20 0 145 -1 277 -1 132 0 242 -4 245 -8 3
-5 5 -190 4 -412 -1 -400 -1 -405 -23 -445 -32 -56 -71 -77 -148 -76 -54 0
-76 6 -146 41 -48 24 -107 64 -142 97 -32 30 -62 52 -66 47 -3 -4 -49 -73
-102 -154 l-96 -148 57 -58 c108 -110 250 -188 380 -209 58 -10 211 -10 272
-1 146 21 286 108 357 221 31 50 69 150 79 208 4 24 8 320 8 657 l1 612 -497
0 -498 0 0 -185z"/>
<path d="M1468 2353 c-3 -7 -3 -1629 1 -1673 1 -13 32 -15 211 -15 115 0 211
2 211 5 1 3 2 106 4 230 1 124 3 227 4 230 0 3 74 5 163 4 l162 0 127 -229
c75 -136 135 -231 146 -235 21 -7 461 -6 468 1 2 3 -30 59 -73 125 -155 237
-272 421 -272 427 0 3 20 18 45 32 24 15 67 51 94 81 196 214 197 631 3 830
-83 86 -221 155 -357 179 -57 11 -932 18 -937 8z m858 -372 c56 -15 103 -49
136 -97 50 -74 43 -222 -13 -292 -59 -74 -147 -94 -389 -90 l-165 3 0 242 c-1
237 -1 242 20 245 52 8 375 -1 411 -11z"/>
</g>
</svg>
